<svg xmlns="http://www.w3.org/2000/svg" width="283.47" height="119.05" viewBox="0 0 283.47 119.05">
  <g id="schmalz_logo" transform="translate(0.005)">
    <path id="Pfad_1" data-name="Pfad 1" d="M282,27.32C252.43,11,188.87,0,141.94,0h-.41C94.59,0,31,11,1.45,27.32c-2.45,1.37-1.4,3.33.38,3.33h279.8c1.78,0,2.86-2,.39-3.33" fill="#0050a0"/>
    <path id="Pfad_2" data-name="Pfad 2" d="M195.46,41.1H185.08L167.44,78h11l2.64-6.07h17.41L201.15,78h11ZM184.6,63.77,189.72,52l5.18,11.75Z" fill="#0050a0"/>
    <path id="Pfad_3" data-name="Pfad 3" d="M249.99,41.1v8.13h19.32L249.24,70.41v7.56h34.22V69.84H262.97L282.51,49.1v-8Z" fill="#0050a0"/>
    <path id="Pfad_4" data-name="Pfad 4" d="M153.52,77.97h10.33V41.1h-8.59L142.18,59.63,129.1,41.1h-8.58V77.97h10.33V59.9l8.46,11.15h5.75l8.46-11.15Z" fill="#0050a0"/>
    <path id="Pfad_5" data-name="Pfad 5" d="M216.25,41.1V77.97h28.96V69.84H227.07V41.1Z" fill="#0050a0"/>
    <path id="Pfad_6" data-name="Pfad 6" d="M101.29,41.1V55.07H88.42V41.1H77.61V77.97H88.42V63.9h12.87V77.97h10.88V41.1Z" fill="#0050a0"/>
    <path id="Pfad_7" data-name="Pfad 7" d="M50.71,64.9V54.12c0-3.42,2.54-5.63,6.44-5.63,4.31,0,6.5.74,10.27,2.16l3.9-6.75a27.64,27.64,0,0,0-14.17-3.53c-10,0-17.25,4.74-17.25,12.22V66.44c0,7.48,7.26,12.27,17.25,12.27a27.62,27.62,0,0,0,14.17-3.53l-3.9-6.75c-3.77,1.42-6,2.16-10.27,2.16-3.77,0-6.44-2-6.44-5.69" fill="#0050a0"/>
    <path id="Pfad_8" data-name="Pfad 8" d="M24,67c0,2.42-3,3.95-8,3.95a31.65,31.65,0,0,1-12-2.6L0,74.81a35.11,35.11,0,0,0,16.36,3.84c12.53,0,18.21-5.11,18.21-11.8,0-7.69-7.19-10.27-14.85-11.06-4.59-.48-7.8-.86-7.8-3.87,0-2.11,1.71-3.79,6-3.79s7,.9,10.88,2.42l4-6.46a29.83,29.83,0,0,0-15.06-3.63C7.4,40.46,1.52,45.2,1.52,51.73c0,7.63,6.09,10.74,14.37,11.59C21.77,63.91,24,64.61,24,67" fill="#0050a0"/>
    <path id="Pfad_9" data-name="Pfad 9" d="M1.45,91.73C31,108.06,94.59,119,141.53,119.05h.41c46.93,0,110.49-11,140.08-27.32,2.47-1.36,1.39-3.33-.38-3.33H1.83c-1.78,0-2.86,2-.39,3.33" fill="#0050a0"/>
  </g>
</svg>
